<?xml version="1.0" encoding="utf-8"?>
<!-- Generator: Adobe Illustrator 17.1.0, SVG Export Plug-In . SVG Version: 6.00 Build 0)  -->
<!DOCTYPE svg PUBLIC "-//W3C//DTD SVG 1.1//EN" "http://www.w3.org/Graphics/SVG/1.1/DTD/svg11.dtd">
<svg version="1.1" id="Layer_1" xmlns="http://www.w3.org/2000/svg" xmlns:xlink="http://www.w3.org/1999/xlink" x="0px" y="0px"
	 viewBox="0 0 100 300" enable-background="new 0 0 100 300" xml:space="preserve">
<path fill-rule="evenodd" clip-rule="evenodd" fill="#A1A0A0" d="M50,102.813c26.061,0,47.187,21.126,47.187,47.187
	S76.061,197.187,50,197.187S2.813,176.061,2.813,150S23.939,102.813,50,102.813z"/>
<g>
	<path fill="#A1A0A0" d="M50,16.016c19.514,0,35.39,15.876,35.39,35.39S69.514,86.797,50,86.797s-35.39-15.876-35.39-35.39
		S30.486,16.016,50,16.016 M50,4.219c-26.061,0-47.187,21.126-47.187,47.187S23.939,98.593,50,98.593s47.187-21.126,47.187-47.187
		S76.061,4.219,50,4.219L50,4.219z"/>
</g>
<path fill-rule="evenodd" clip-rule="evenodd" fill="#A1A0A0" d="M50,201.406c26.061,0,47.187,21.126,47.187,47.187
	S76.061,295.781,50,295.781S2.813,274.654,2.813,248.594S23.939,201.406,50,201.406z"/>
</svg>
