<?xml version="1.0" encoding="utf-8"?>
<!-- Generator: Adobe Illustrator 17.1.0, SVG Export Plug-In . SVG Version: 6.00 Build 0)  -->
<!DOCTYPE svg PUBLIC "-//W3C//DTD SVG 1.1//EN" "http://www.w3.org/Graphics/SVG/1.1/DTD/svg11.dtd">
<svg version="1.1" id="Layer_1" xmlns="http://www.w3.org/2000/svg" xmlns:xlink="http://www.w3.org/1999/xlink" x="0px" y="0px"
	 viewBox="0 0 294 167" enable-background="new 0 0 294 167" xml:space="preserve">
<g>
	<g>
		<path fill="#FFFFFF" d="M82.63,161.021c-1.426,0-3.058-0.293-4.89-1.054c-6.743-2.801-10.267-9.717-10.474-20.557
			c-0.169-8.875-0.205-17.213-0.145-25.21c-2.277,0.401-4.584,0.209-6.844-0.588c-4.207-1.483-7.815-4.98-9.954-9.554
			c-2.059,3.187-5.378,5.727-9.295,7.026c-4.905,1.628-10.082,1.118-14.201-1.4c-0.317-0.194-0.625-0.395-0.923-0.603
			c-4.356,2.861-9.605,2.804-13.555,1.091c-5.504-2.386-10.049-8.528-7.796-16.871l5.792,1.564c-1.408,5.212,1.345,8.48,4.391,9.801
			c2.015,0.873,4.495,1.017,6.75,0.001c-4.446-6.323-4.802-15.008-5.078-21.778l-0.066-1.577l-2.296-51.617
			c-0.039-0.865-0.094-1.748-0.15-2.641c-0.29-4.609-0.619-9.834,1.273-14.582c1.796-4.507,5.93-7.948,10.286-8.562
			c3.488-0.495,6.673,0.858,8.955,3.803c5.468,7.058,4.896,17.747,4.437,26.336c-0.12,2.237-0.233,4.351-0.237,6.237
			c-0.018,7.896-0.759,15.759-1.476,23.362c-0.329,3.482-0.668,7.083-0.932,10.628c-0.125,1.681-0.209,3.409-0.297,5.239
			c-0.394,8.148-0.841,17.384-5.404,24.753c-0.094,0.151-0.188,0.3-0.285,0.445c2.569,1.46,5.802,1.708,8.924,0.672
			c3.235-1.073,5.817-3.336,6.907-6.052c1.169-2.915,1.349-6.863,1.576-11.86c0.218-4.779,0.464-10.195,1.622-16.602
			c0.276-1.53,1.677-2.595,3.223-2.455c1.548,0.141,2.732,1.44,2.729,2.995c-0.011,4.98-0.303,9.383-0.561,13.269
			c-0.43,6.501-0.771,11.637,0.515,15.337c1.324,3.812,4.053,6.852,7.121,7.933c1.623,0.571,3.268,0.588,4.916,0.055
			c0.225-16.345,0.823-31.435,1.443-47.064c0.562-14.187,1.144-28.854,1.494-45.476l-0.01-0.2c-0.048-0.989,0.396-1.938,1.186-2.536
			c0.79-0.599,1.824-0.768,2.763-0.453c0.14,0.047,3.453,1.161,5.828,2.404c12.168,6.372,13.956,29.055,5.313,67.418l-0.152,0.678
			c-0.477,2.128-0.851,4.245-1.213,6.292c-0.674,3.811-1.331,7.527-2.581,11.034c1.599-0.223,4.204-0.929,8.37-2.778
			c-1.268-4.856-1.442-10.072-0.954-14.536c0.77-7.033,5.625-15.218,13.415-17.256c4.387-1.147,8.357,0.124,10.888,3.487
			c3.267,4.342,3.532,11.6,0.603,16.524c-4.171,7.012-11.391,11.949-16.474,14.767c0.835,1.63,1.895,3.08,3.215,4.234
			c2.004,1.752,3.895,2.359,5.78,1.857c2.79-0.745,5.625-4.043,7.055-8.208l5.675,1.948c-2.115,6.161-6.399,10.781-11.182,12.057
			c-2.688,0.716-6.826,0.755-11.276-3.138c-1.944-1.699-3.471-3.789-4.644-6.103c-2.781,1.226-5.749,2.353-8.513,2.887
			c8.35,12.566,12.528,26.417,11.576,38.829c-0.2,2.604-1.303,11.374-7.1,14.93C86.491,160.345,84.797,161.021,82.63,161.021z
			 M73.146,111.628c-0.09,8.749-0.067,17.882,0.12,27.668c0.159,8.353,2.376,13.302,6.776,15.13
			c2.755,1.145,4.079,0.333,4.513,0.067c2.512-1.541,3.947-6.271,4.254-10.274c0.876-11.412-3.438-24.816-11.648-36.59
			C76.051,109.025,74.73,110.361,73.146,111.628z M76.037,19.483c-0.355,15.092-0.891,28.601-1.41,41.7
			c-0.55,13.875-1.083,27.32-1.352,41.594c0.183-0.27,0.357-0.543,0.523-0.82c0.04-0.77,0.374-1.522,0.989-2.076
			c0.051-0.045,0.103-0.089,0.156-0.131c1.521-3.423,2.209-7.316,2.989-11.722c0.374-2.113,0.76-4.297,1.266-6.558l0.154-0.687
			C90.193,32.66,81.395,22.244,77.108,20C76.78,19.828,76.416,19.653,76.037,19.483z M26.817,9.817
			c-0.171,0-0.346,0.013-0.525,0.038c-2.187,0.308-4.572,2.389-5.55,4.842c-1.393,3.495-1.121,7.811-0.858,11.983
			c0.059,0.931,0.116,1.85,0.156,2.751l2.363,53.216c0.251,6.162,0.528,12.933,3.432,17.727c3.341-5.958,3.714-13.673,4.076-21.145
			c0.086-1.788,0.176-3.636,0.307-5.394c0.268-3.604,0.611-7.235,0.942-10.747c0.704-7.469,1.433-15.191,1.449-22.812
			c0.004-2.041,0.122-4.228,0.246-6.544c0.428-7.991,0.913-17.048-3.188-22.341C28.85,10.335,27.913,9.817,26.817,9.817z
			 M105.204,71.113c-0.487,0-1.018,0.076-1.595,0.228c-5.111,1.337-8.436,7.234-8.968,12.104c-0.364,3.328-0.299,7.33,0.494,11.1
			c5.921-3.43,10.729-7.757,13.291-12.064c1.686-2.835,1.573-7.438-0.241-9.849C107.417,71.612,106.45,71.113,105.204,71.113z"/>
	</g>
	<g>
		<path fill="#FFFFFF" d="M146.434,111.182c-6.007-0.229-18.112-0.268-18.233-0.269l-1.431-0.004l0.035-1.431
			c0.017-0.702,1.707-70.541,1.205-103.725l2.802-0.042c0.463,30.594-0.933,92.24-1.171,102.407
			c3.41,0.018,12.085,0.08,16.902,0.264L146.434,111.182z"/>
	</g>
	<path fill="#FFFFFF" d="M152.655,107.746l-0.703-54.723h15.762v-2.802h-15.798l-0.53-41.281c8.558-0.05,16.229,0.052,16.309,0.053
		l0.038-2.802c-0.085-0.001-8.639-0.114-17.777-0.043l-1.408,0.011l1.339,104.329l18.505,0.411l0.062-2.802L152.655,107.746z"/>
	<path fill="#FFFFFF" d="M190.579,88.068c-0.557-7.478-5.498-81.046-5.548-81.789l-0.089-1.328l-8.214-0.12l-0.06,1.566
		c0,0-0.926,20.457-1.442,31.331l-1.959,41.309c-0.28,5.903-0.438,11.264-0.589,16.448c-0.152,5.171-0.309,10.519-0.587,16.397
		l2.799,0.133c0.28-5.903,0.438-11.264,0.589-16.448c0.152-5.171,0.309-10.519,0.587-16.397l1.317-27.771
		c1.963-0.043,3.206-0.087,4.436-0.13c1.004-0.035,2.018-0.071,3.427-0.106c1.169,17.3,2.289,33.776,2.538,37.114
		c0.583,7.817,1.372,23.57,1.379,23.729l2.799-0.14C191.954,111.706,191.163,95.919,190.579,88.068z M181.72,48.468
		c-1.18,0.042-2.37,0.083-4.205,0.125l0.509-10.731c0.438-9.221,1.17-24.33,1.383-29.02l2.917,0.204
		c0.332,4.942,1.535,21.59,2.732,39.318C183.696,48.398,182.705,48.433,181.72,48.468z"/>
	<g>
		<path fill="#FFFFFF" d="M244.435,111.229l-6.783-0.21l-0.064-1.291c-0.012-0.244-1.234-24.586-2.469-37.804
			c-0.227-2.426-0.43-4.706-0.626-6.901c-1.188-13.308-2.126-23.07-6.435-44.566l-2.607-13.044l-1.355,0.054
			c0.268,11.146,2.067,85.523,2.39,102.515l-2.802,0.054c-0.347-18.266-2.401-103.019-2.422-103.88l-0.033-1.379l6.501-0.259
			l3.077,15.389c4.338,21.646,5.282,31.475,6.478,44.868c0.196,2.191,0.399,4.467,0.625,6.889c1.075,11.516,2.14,31.4,2.412,36.634
			l1.245,0.039c-0.193-8.479-1.151-50.621-1.19-54.958c-0.11-12.368-0.087-22.267-0.063-33.541
			c0.011-4.985,0.022-10.101,0.022-15.555h2.802c0,5.456-0.011,10.574-0.021,15.561c-0.024,11.266-0.047,21.157,0.062,33.509
			c0.043,4.783,1.212,55.882,1.224,56.398L244.435,111.229z"/>
	</g>
	<path fill="#FFFFFF" d="M264.775,108.726l-10.175,0.007c-0.228-5.183-1.037-23.823-1.106-28.223
		c-0.16-10.172-0.027-30.683-0.026-30.901c0-0.022,0-0.226-0.001-0.558h10.586v-2.802h-10.586c0.004-7.847,0.051-26.22,0.415-39.121
		l10.862,0.03l0.008-2.802l-13.588-0.038l-0.042,1.361c-0.503,16.11-0.456,43.643-0.455,43.922
		c-0.001,0.207-0.134,20.748,0.026,30.952c0.081,5.139,1.123,28.646,1.167,29.644l0.06,1.34l12.858-0.01L264.775,108.726z"/>
	<g>
		<path fill="#FFFFFF" d="M273.317,110.809l-2.802-0.035c0.137-11.06-0.115-38.831-0.337-63.333
			c-0.187-20.622-0.348-36.681-0.265-42.022l0.019-1.183l1.169-0.18c4.919-0.757,11.416,1.814,14.185,5.613
			c0.823,1.13,1.28,2.438,1.65,3.685c2.14,7.201,1.687,24.167-0.228,28.777c-1.08,2.6-3.598,4.847-6.667,6.283
			c3.277,0.687,5.632,1.803,6.743,4.362c0.904,2.082,1.361,5.849,1.448,7.873c0.78,18.172,0.822,34.802,0.751,50.066l-2.802-0.013
			c0.07-15.23,0.028-31.82-0.749-49.934c-0.081-1.875-0.512-5.249-1.219-6.877c-1.002-2.308-4.222-2.807-10.304-3.558
			c-0.297-0.037-0.598-0.074-0.904-0.112C273.222,74.019,273.45,100.14,273.317,110.809z M272.703,6.725
			c-0.046,6.567,0.111,22.2,0.277,40.553c4.719-0.078,9.717-2.791,11.142-6.222c1.541-3.709,2.186-19.983,0.129-26.903
			c-0.346-1.162-0.687-2.089-1.229-2.833C281.047,8.61,276.456,6.62,272.703,6.725z"/>
	</g>
	<g>
		<path fill="#FFFFFF" d="M199.652,110.809l-2.802-0.035c0.137-11.064-0.115-38.848-0.337-63.361
			c-0.187-20.608-0.348-36.406-0.265-41.744l0.019-1.183l1.169-0.18c4.92-0.757,11.416,1.814,14.185,5.613
			c0.823,1.13,1.28,2.438,1.65,3.685c2.14,7.201,1.687,23.917-0.228,28.527c-1.08,2.6-3.598,4.847-6.667,6.283
			c3.277,0.687,5.632,1.803,6.743,4.362c0.904,2.082,1.361,5.849,1.448,7.873c0.78,18.172,0.822,34.802,0.751,50.066l-2.802-0.013
			c0.07-15.23,0.028-31.82-0.749-49.934c-0.081-1.875-0.512-5.249-1.219-6.877c-1.002-2.308-4.222-2.807-10.304-3.558
			c-0.296-0.037-0.598-0.074-0.904-0.112C199.556,74.022,199.784,100.14,199.652,110.809z M199.037,6.975
			c-0.047,6.478,0.104,21.169,0.278,40.303c4.719-0.078,9.716-2.791,11.142-6.222c1.541-3.709,2.186-19.733,0.129-26.653
			c-0.346-1.162-0.687-2.089-1.229-2.833C207.381,8.86,202.812,6.87,199.037,6.975z"/>
	</g>
	<g>
		<path fill="#FFFFFF" d="M52.51,59.336c-0.72,0-4.325-0.263-4.573-5.459c-0.079-1.657,0.022-3.374,1.289-4.702
			c0.778-0.816,1.932-1.315,3.06-1.315c1.744,0,3.247,1.022,4.021,2.734c0.418,0.926,0.589,1.932,0.658,2.613
			c0.013,0.126,0.02,0.252,0.021,0.378c0.013,1.392-0.14,3.16-1.449,4.481C54.726,58.885,53.651,59.336,52.51,59.336z"/>
	</g>
</g>
<g>
	<path fill="none" stroke="#FFFFFF" stroke-width="6" stroke-linejoin="round" stroke-miterlimit="10" d="M6.201,412.523
		c-3.533,13.083,13.535,19.856,20.5,8.608c5.099-8.235,4.569-19.346,5.26-28.636c0.841-11.29,2.374-22.422,2.399-33.774
		c0.02-9.233,2.506-22.886-3.571-30.729c-4.415-5.699-11.842-1.592-14.083,4.031c-1.979,4.966-1.144,10.783-0.912,15.979
		c0.259,5.813,0.517,11.626,0.776,17.438c0.507,11.393,1.013,22.786,1.52,34.179c0.398,8.948,0.35,20.623,9.054,25.944
		c7.318,4.474,17.544,0.546,20.438-6.67c2.563-6.39,0.979-15.832,3.366-29.046c-0.031,13.591-2.198,22.924,0.121,29.597
		c2.74,7.887,10.682,13.494,18.682,8.494c9-7,8.712-16.596,11.125-27.375c1.875-8.375,13.079-56.036-3.625-64.783
		c-2.19-1.147-5.388-2.217-5.388-2.217l0.015,0.303c-0.97,46.299-3.746,77.603-2.861,123.926c0.13,6.785,1.54,14.9,8.625,17.844
		c8.884,3.691,12.373-5.761,12.909-12.748c1.154-15.031-5.84-30.76-15.006-42.34c3.035,2.967,11.971-1.069,15.162-2.541
		c7.042-3.249,15.017-8.781,19.047-15.555c3.717-6.249,1.047-17.982-8.153-15.575c-6.344,1.659-10.52,8.539-11.191,14.68
		c-0.849,7.764,0.455,18.237,6.69,23.688c7.652,6.691,14.987,0.113,17.646-7.635"/>
	<path fill="none" stroke="#FFFFFF" stroke-width="2.8022" stroke-miterlimit="10" d="M129.409,324.17
		c0.508,33.596-1.205,103.78-1.205,103.78s12.182,0.036,18.283,0.27"/>
	<path fill="none" stroke="#FFFFFF" stroke-width="2.8022" stroke-miterlimit="10" d="M167.715,326.03c0,0-8.519-0.115-17.747-0.043
		c0.435,33.689,1.304,101.568,1.304,101.568l17.153,0.38"/>
	<path fill="none" stroke="#FFFFFF" stroke-width="2.8022" stroke-miterlimit="10" d="M167.715,370.06c-8.186,0-8.186,0-16.371,0"/>
	<path fill="none" stroke="#FFFFFF" stroke-width="2.8022" stroke-miterlimit="10" d="M190.562,430.372
		c0,0-0.791-15.838-1.381-23.763c-0.564-7.569-5.548-81.799-5.548-81.799l-5.565,0.088c0,0-0.927,20.458-1.443,31.334
		c-0.653,13.77-1.306,27.539-1.959,41.309c-0.559,11.782-0.618,21.064-1.176,32.846"/>
	<path fill="none" stroke="#FFFFFF" stroke-width="2.8022" stroke-miterlimit="10" d="M187.687,368.145
		c-5.778,0.107-6.057,0.214-11.835,0.321"/>
	<path fill="none" stroke="#FFFFFF" stroke-width="2.8022" stroke-miterlimit="10" d="M225.084,428.446
		c-0.351-18.48-2.423-104.637-2.423-104.637l3.928-0.157c0,0,1.738,8.704,2.843,14.216c5.021,25.054,5.453,34.924,7.081,52.362
		c1.252,13.401,2.473,37.864,2.473,37.864l4.013,0.125c0,0-1.18-51.57-1.224-56.417c-0.159-17.817-0.041-32.022-0.041-49.833"/>
	<path fill="none" stroke="#FFFFFF" stroke-width="2.8022" stroke-miterlimit="10" d="M264.749,322.695
		c-3.909-0.011-8.317-0.023-12.226-0.034c-0.508,16.274-0.455,45.388-0.455,45.388s-0.136,20.614,0.026,30.92
		c0.081,5.178,1.166,29.604,1.166,29.604s7.678-0.006,11.517-0.009"/>
	<path fill="none" stroke="#FFFFFF" stroke-width="2.8022" stroke-miterlimit="10" d="M264.054,366.087c-5.297,0-5.297,0-10.593,0"
		/>
	<path fill="none" stroke="#FFFFFF" stroke-width="2.8022" stroke-miterlimit="10" d="M287.583,429.146
		c0.08-17.317-0.02-32.998-0.75-50c-0.085-1.99-0.54-5.548-1.333-7.375c-1.549-3.567-6.532-3.734-13.909-4.705
		c5.752,0.512,12.085-2.848,13.825-7.036c1.739-4.188,2.234-22.673,0.178-29.59c-0.34-1.144-0.737-2.294-1.44-3.259
		c-2.56-3.511-8.545-5.714-12.839-5.054c-0.184,11.809,0.852,86.934,0.602,107.1"/>
	<path fill="none" stroke="#FFFFFF" stroke-width="2.8022" stroke-miterlimit="10" d="M213.918,429.146
		c0.08-17.317-0.02-32.998-0.75-50c-0.085-1.99-0.54-5.548-1.333-7.375c-1.549-3.567-6.532-3.734-13.909-4.705
		c5.752,0.512,12.085-2.848,13.825-7.036c1.739-4.188,2.234-22.673,0.178-29.59c-0.34-1.144-0.737-2.294-1.44-3.259
		c-2.56-3.511-8.545-5.714-12.839-5.054c-0.184,11.809,0.852,86.934,0.602,107.1"/>
	<path fill="none" stroke="#FFFFFF" stroke-width="8.2489" stroke-linejoin="round" stroke-miterlimit="10" d="M51.298,370.732
		c0.134,0.296,0.257,0.778,0.313,1.331c0.02,2.192-0.711,2.02-0.805,0.055C50.719,370.293,51.031,370.14,51.298,370.732z"/>
</g>
</svg>
