<?xml version="1.0" encoding="utf-8"?>
<!-- Generator: Adobe Illustrator 17.0.0, SVG Export Plug-In . SVG Version: 6.00 Build 0)  -->
<!DOCTYPE svg PUBLIC "-//W3C//DTD SVG 1.1//EN" "http://www.w3.org/Graphics/SVG/1.1/DTD/svg11.dtd">
<svg version="1.1" id="Layer_1" xmlns="http://www.w3.org/2000/svg" xmlns:xlink="http://www.w3.org/1999/xlink" x="0px" y="0px"
	 width="512px" height="512px" viewBox="0 0 512 512" enable-background="new 0 0 512 512" xml:space="preserve">
<g>
	<path fill="none" stroke="#FFFFFF" stroke-width="4" stroke-miterlimit="10" d="M208.972,294.845v93.131H198.66v-93.131
		 M198.66,285.939V126.104h89.995c11.872,0,23.905,1.333,36.092,3.984c12.187,2.659,23.202,7.112,33.045,13.359
		c9.843,6.255,17.885,14.692,24.139,25.311c6.247,10.627,9.375,23.905,9.375,39.842c0,14.061-2.578,26.483-7.734,37.263
		c-5.156,10.781-12.114,19.767-20.858,26.952c-8.752,7.192-18.983,12.656-30.702,16.406c-11.718,3.749-24.139,5.624-37.264,5.624
		H112.951v-8.906h182.266c10.312,0,20.624-1.406,30.936-4.218c10.312-2.812,19.526-7.339,27.655-13.593
		c8.122-6.247,14.684-14.296,19.686-24.139c4.995-9.844,7.5-21.635,7.5-35.389c0-14.062-2.659-25.78-7.969-35.154
		c-5.317-9.375-12.187-16.874-20.624-22.499c-8.437-5.625-17.892-9.682-28.358-12.187c-10.473-2.497-20.858-3.75-31.17-3.75h-83.902
		v150.929"/>
</g>
</svg>
